<svg width="44" height="44" viewBox="0 0 44 44" fill="none" xmlns="http://www.w3.org/2000/svg">
<circle cx="21.967" cy="22" r="21.4008" stroke="white"/>
<path d="M21.9656 15.2502C20.175 15.2502 18.4578 15.9614 17.1917 17.2276C15.9256 18.4937 15.2143 20.2109 15.2143 22.0014C15.2143 23.792 15.9256 25.5092 17.1917 26.7753C18.4578 28.0414 20.175 28.7527 21.9656 28.7527C23.7561 28.7527 25.4733 28.0414 26.7394 26.7753C28.0056 25.5092 28.7169 23.792 28.7169 22.0014C28.7169 20.2109 28.0056 18.4937 26.7394 17.2276C25.4733 15.9614 23.7561 15.2502 21.9656 15.2502ZM21.9656 26.386C20.8023 26.386 19.6867 25.9239 18.8642 25.1014C18.0416 24.2788 17.5796 23.1632 17.5796 22C17.5796 20.8367 18.0416 19.7211 18.8642 18.8986C19.6867 18.0761 20.8023 17.614 21.9656 17.614C23.1288 17.614 24.2444 18.0761 25.0669 18.8986C25.8895 19.7211 26.3516 20.8367 26.3516 22C26.3516 23.1632 25.8895 24.2788 25.0669 25.1014C24.2444 25.9239 23.1288 26.386 21.9656 26.386Z" fill="white"/>
<path d="M28.984 16.5759C29.8533 16.5759 30.558 15.8712 30.558 15.0019C30.558 14.1327 29.8533 13.428 28.984 13.428C28.1148 13.428 27.4101 14.1327 27.4101 15.0019C27.4101 15.8712 28.1148 16.5759 28.984 16.5759Z" fill="white"/>
<path d="M34.4257 13.4017C34.0877 12.5289 33.5711 11.7362 32.9092 11.0745C32.2472 10.4127 31.4543 9.89653 30.5813 9.55886C29.5598 9.17538 28.4806 8.96803 27.3897 8.94563C25.9836 8.88431 25.5383 8.86679 21.9729 8.86679C18.4074 8.86679 17.9504 8.86679 16.556 8.94563C15.466 8.96689 14.3875 9.17428 13.3673 9.55886C12.4941 9.89613 11.701 10.4122 11.039 11.074C10.377 11.7358 9.86057 12.5286 9.52296 13.4017C9.13941 14.4232 8.93254 15.5025 8.9112 16.5934C8.84842 17.998 8.82944 18.4433 8.82944 22.0102C8.82944 25.5757 8.82944 26.0297 8.9112 27.427C8.9331 28.5191 9.13897 29.5967 9.52296 30.6202C9.86152 31.4929 10.3784 32.2855 11.0406 32.9472C11.7028 33.6088 12.4957 34.1251 13.3687 34.463C14.387 34.8619 15.4659 35.0841 16.559 35.12C17.965 35.1814 18.4103 35.2003 21.9758 35.2003C25.5412 35.2003 25.9982 35.2003 27.3926 35.12C28.4834 35.0979 29.5626 34.891 30.5843 34.5083C31.457 34.1698 32.2496 33.6532 32.9115 32.9912C33.5735 32.3293 34.0901 31.5367 34.4286 30.664C34.8126 29.6419 35.0184 28.5644 35.0403 27.4723C35.1031 26.0677 35.1221 25.6224 35.1221 22.0555C35.1221 18.4886 35.1221 18.0359 35.0403 16.6387C35.0233 15.5323 34.8154 14.4373 34.4257 13.4017ZM32.6473 27.319C32.6379 28.1604 32.4843 28.994 32.1932 29.7835C31.974 30.3513 31.6383 30.8669 31.2078 31.2971C30.7773 31.7274 30.2615 32.0628 29.6936 32.2817C28.9128 32.5714 28.0881 32.725 27.2553 32.7358C25.8683 32.8 25.477 32.8161 21.9203 32.8161C18.3607 32.8161 17.9971 32.8161 16.5838 32.7358C15.7515 32.7256 14.9271 32.572 14.147 32.2817C13.5771 32.0641 13.0592 31.7293 12.6269 31.299C12.1945 30.8687 11.8574 30.3524 11.6371 29.7835C11.3501 29.0025 11.1966 28.1787 11.183 27.3467C11.1203 25.9597 11.1057 25.5684 11.1057 22.0117C11.1057 18.4535 11.1057 18.09 11.183 16.6752C11.1925 15.8342 11.3461 15.0011 11.6371 14.2121C12.0824 13.0601 12.995 12.1534 14.147 11.7124C14.9275 11.4236 15.7516 11.27 16.5838 11.2584C17.9723 11.1956 18.3621 11.1781 21.9203 11.1781C25.4784 11.1781 25.8435 11.1781 27.2553 11.2584C28.0882 11.2684 28.913 11.422 29.6936 11.7124C30.2615 11.9318 30.7772 12.2676 31.2077 12.698C31.6381 13.1285 31.9738 13.6442 32.1932 14.2121C32.4802 14.9931 32.6337 15.8169 32.6473 16.6489C32.7101 18.0374 32.7262 18.4272 32.7262 21.9854C32.7262 25.5421 32.7262 25.9246 32.6634 27.3204H32.6473V27.319Z" fill="white"/>
</svg>
