<svg width="44" height="44" viewBox="0 0 44 44" fill="none" xmlns="http://www.w3.org/2000/svg">
<circle cx="22.033" cy="22" r="21.4008" stroke="white"/>
<path d="M14.3491 16.7405C15.6724 16.7405 16.7451 15.6678 16.7451 14.3446C16.7451 13.0213 15.6724 11.9486 14.3491 11.9486C13.0259 11.9486 11.9532 13.0213 11.9532 14.3446C11.9532 15.6678 13.0259 16.7405 14.3491 16.7405Z" fill="white"/>
<path d="M19.0074 18.5561V31.8488H23.1346V25.2753C23.1346 23.5407 23.461 21.8609 25.6116 21.8609C27.7327 21.8609 27.759 23.844 27.759 25.3848V31.8499H31.8884V24.5602C31.8884 20.9794 31.1175 18.2276 26.9322 18.2276C24.9228 18.2276 23.5759 19.3303 23.0251 20.3739H22.9693V18.5561H19.0074ZM12.2817 18.5561H16.4155V31.8488H12.2817V18.5561Z" fill="white"/>
</svg>
